<mxfile host="app.diagrams.net" modified="2023-10-10T09:15:12.453Z" agent="Mozilla/5.0 (X11; Linux x86_64) AppleWebKit/537.36 (KHTML, like Gecko) Chrome/117.0.0.0 Safari/537.36" etag="X90nx06SAnuw-7uM3mAz" version="22.0.4" type="device">
  <diagram name="Page-1" id="mZBsjVlde6QA4XLxL6bu">
    <mxGraphModel dx="1687" dy="976" grid="1" gridSize="10" guides="1" tooltips="1" connect="1" arrows="1" fold="1" page="1" pageScale="1" pageWidth="827" pageHeight="1169" math="0" shadow="0">
      <root>
        <mxCell id="0" />
        <mxCell id="1" parent="0" />
        <mxCell id="oZqUHAEwf5Q9D4PgmoEC-4" style="edgeStyle=orthogonalEdgeStyle;rounded=0;orthogonalLoop=1;jettySize=auto;html=1;" edge="1" parent="1" source="oZqUHAEwf5Q9D4PgmoEC-3">
          <mxGeometry relative="1" as="geometry">
            <mxPoint x="190" y="169.9999999999999" as="targetPoint" />
          </mxGeometry>
        </mxCell>
        <mxCell id="oZqUHAEwf5Q9D4PgmoEC-3" value="" style="shape=ellipse;html=1;fillColor=strokeColor;strokeWidth=2;verticalLabelPosition=bottom;verticalAlignment=top;perimeter=ellipsePerimeter;" vertex="1" parent="1">
          <mxGeometry x="175" y="60" width="30" height="30" as="geometry" />
        </mxCell>
        <mxCell id="oZqUHAEwf5Q9D4PgmoEC-6" style="edgeStyle=orthogonalEdgeStyle;rounded=0;orthogonalLoop=1;jettySize=auto;html=1;" edge="1" parent="1" source="oZqUHAEwf5Q9D4PgmoEC-5" target="oZqUHAEwf5Q9D4PgmoEC-7">
          <mxGeometry relative="1" as="geometry">
            <mxPoint x="190" y="329.9999999999999" as="targetPoint" />
          </mxGeometry>
        </mxCell>
        <mxCell id="oZqUHAEwf5Q9D4PgmoEC-5" value="Vérifier l&#39;authentification de l&#39;utilisateur" style="shape=rect;html=1;rounded=1;whiteSpace=wrap;align=center;" vertex="1" parent="1">
          <mxGeometry x="125" y="170" width="130" height="50" as="geometry" />
        </mxCell>
        <mxCell id="oZqUHAEwf5Q9D4PgmoEC-10" style="edgeStyle=orthogonalEdgeStyle;rounded=0;orthogonalLoop=1;jettySize=auto;html=1;" edge="1" parent="1" source="oZqUHAEwf5Q9D4PgmoEC-7">
          <mxGeometry relative="1" as="geometry">
            <mxPoint x="190" y="419.9999999999999" as="targetPoint" />
          </mxGeometry>
        </mxCell>
        <mxCell id="oZqUHAEwf5Q9D4PgmoEC-22" style="edgeStyle=orthogonalEdgeStyle;rounded=0;orthogonalLoop=1;jettySize=auto;html=1;entryX=1;entryY=0.5;entryDx=0;entryDy=0;" edge="1" parent="1" source="oZqUHAEwf5Q9D4PgmoEC-7" target="oZqUHAEwf5Q9D4PgmoEC-5">
          <mxGeometry relative="1" as="geometry">
            <mxPoint x="350" y="189.9999999999999" as="targetPoint" />
            <Array as="points">
              <mxPoint x="190" y="300" />
              <mxPoint x="320" y="300" />
              <mxPoint x="320" y="195" />
            </Array>
          </mxGeometry>
        </mxCell>
        <mxCell id="oZqUHAEwf5Q9D4PgmoEC-7" value="" style="html=1;shape=mxgraph.sysml.timeEvent;strokeWidth=2;verticalLabelPosition=bottom;verticalAlignment=top;" vertex="1" parent="1">
          <mxGeometry x="172.5" y="309.9999999999999" width="35" height="40" as="geometry" />
        </mxCell>
        <mxCell id="oZqUHAEwf5Q9D4PgmoEC-9" value="Authentifié" style="html=1;shape=mxgraph.sysml.accEvent;strokeWidth=2;whiteSpace=wrap;align=center;" vertex="1" parent="1">
          <mxGeometry x="110" y="360" width="73.33" height="20" as="geometry" />
        </mxCell>
        <mxCell id="oZqUHAEwf5Q9D4PgmoEC-11" value="Non valide" style="html=1;shape=mxgraph.sysml.sendSigAct;strokeWidth=2;whiteSpace=wrap;align=center;" vertex="1" parent="1">
          <mxGeometry x="230" y="280" width="80" height="20" as="geometry" />
        </mxCell>
        <mxCell id="oZqUHAEwf5Q9D4PgmoEC-12" value="Sélectionner un produit et quantité" style="shape=rect;html=1;rounded=1;whiteSpace=wrap;align=center;" vertex="1" parent="1">
          <mxGeometry x="125" y="420" width="130" height="40" as="geometry" />
        </mxCell>
        <mxCell id="oZqUHAEwf5Q9D4PgmoEC-13" value="Le produit est disponible en stock ?" style="html=1;shape=mxgraph.sysml.sendSigAct;strokeWidth=2;whiteSpace=wrap;align=center;" vertex="1" parent="1">
          <mxGeometry x="140" y="490" width="100" height="50" as="geometry" />
        </mxCell>
        <mxCell id="oZqUHAEwf5Q9D4PgmoEC-32" style="edgeStyle=orthogonalEdgeStyle;rounded=0;orthogonalLoop=1;jettySize=auto;html=1;entryX=0;entryY=0.5;entryDx=0;entryDy=0;" edge="1" parent="1" source="oZqUHAEwf5Q9D4PgmoEC-17" target="oZqUHAEwf5Q9D4PgmoEC-31">
          <mxGeometry relative="1" as="geometry" />
        </mxCell>
        <mxCell id="oZqUHAEwf5Q9D4PgmoEC-17" value="Ajouter le produit a la commande" style="shape=rect;html=1;rounded=1;whiteSpace=wrap;align=center;" vertex="1" parent="1">
          <mxGeometry x="125" y="690" width="130" height="40" as="geometry" />
        </mxCell>
        <mxCell id="oZqUHAEwf5Q9D4PgmoEC-19" value="Oui" style="html=1;shape=mxgraph.sysml.accEvent;strokeWidth=2;whiteSpace=wrap;align=center;" vertex="1" parent="1">
          <mxGeometry x="150" y="640" width="33.33" height="20" as="geometry" />
        </mxCell>
        <mxCell id="oZqUHAEwf5Q9D4PgmoEC-20" style="edgeStyle=orthogonalEdgeStyle;rounded=0;orthogonalLoop=1;jettySize=auto;html=1;entryX=0.5;entryY=0;entryDx=0;entryDy=0;entryPerimeter=0;" edge="1" parent="1" source="oZqUHAEwf5Q9D4PgmoEC-12" target="oZqUHAEwf5Q9D4PgmoEC-13">
          <mxGeometry relative="1" as="geometry" />
        </mxCell>
        <mxCell id="oZqUHAEwf5Q9D4PgmoEC-27" style="edgeStyle=orthogonalEdgeStyle;rounded=0;orthogonalLoop=1;jettySize=auto;html=1;entryX=0.5;entryY=0;entryDx=0;entryDy=0;" edge="1" parent="1" source="oZqUHAEwf5Q9D4PgmoEC-23" target="oZqUHAEwf5Q9D4PgmoEC-17">
          <mxGeometry relative="1" as="geometry" />
        </mxCell>
        <mxCell id="oZqUHAEwf5Q9D4PgmoEC-28" style="edgeStyle=orthogonalEdgeStyle;rounded=0;orthogonalLoop=1;jettySize=auto;html=1;entryX=1;entryY=0.5;entryDx=0;entryDy=0;" edge="1" parent="1" source="oZqUHAEwf5Q9D4PgmoEC-23" target="oZqUHAEwf5Q9D4PgmoEC-12">
          <mxGeometry relative="1" as="geometry">
            <Array as="points">
              <mxPoint x="190" y="570" />
              <mxPoint x="330" y="570" />
              <mxPoint x="330" y="440" />
            </Array>
          </mxGeometry>
        </mxCell>
        <mxCell id="oZqUHAEwf5Q9D4PgmoEC-23" value="" style="html=1;shape=mxgraph.sysml.timeEvent;strokeWidth=2;verticalLabelPosition=bottom;verticalAlignment=top;" vertex="1" parent="1">
          <mxGeometry x="172.5" y="584.9999999999999" width="35" height="40" as="geometry" />
        </mxCell>
        <mxCell id="oZqUHAEwf5Q9D4PgmoEC-26" style="edgeStyle=orthogonalEdgeStyle;rounded=0;orthogonalLoop=1;jettySize=auto;html=1;entryX=0.5;entryY=0;entryDx=0;entryDy=0;entryPerimeter=0;" edge="1" parent="1" source="oZqUHAEwf5Q9D4PgmoEC-13" target="oZqUHAEwf5Q9D4PgmoEC-23">
          <mxGeometry relative="1" as="geometry" />
        </mxCell>
        <mxCell id="oZqUHAEwf5Q9D4PgmoEC-29" value="Non valide" style="html=1;shape=mxgraph.sysml.sendSigAct;strokeWidth=2;whiteSpace=wrap;align=center;" vertex="1" parent="1">
          <mxGeometry x="240" y="550" width="80" height="20" as="geometry" />
        </mxCell>
        <mxCell id="oZqUHAEwf5Q9D4PgmoEC-30" value="Afficher un message d&#39;indisponibilité" style="shape=rect;html=1;rounded=1;whiteSpace=wrap;align=center;" vertex="1" parent="1">
          <mxGeometry x="270" y="480" width="130" height="40" as="geometry" />
        </mxCell>
        <mxCell id="oZqUHAEwf5Q9D4PgmoEC-34" style="edgeStyle=orthogonalEdgeStyle;rounded=0;orthogonalLoop=1;jettySize=auto;html=1;" edge="1" parent="1" source="oZqUHAEwf5Q9D4PgmoEC-31" target="oZqUHAEwf5Q9D4PgmoEC-33">
          <mxGeometry relative="1" as="geometry" />
        </mxCell>
        <mxCell id="oZqUHAEwf5Q9D4PgmoEC-31" value="Calculer le montant total de la commande" style="shape=rect;html=1;rounded=1;whiteSpace=wrap;align=center;" vertex="1" parent="1">
          <mxGeometry x="340" y="690" width="130" height="40" as="geometry" />
        </mxCell>
        <mxCell id="oZqUHAEwf5Q9D4PgmoEC-36" style="edgeStyle=orthogonalEdgeStyle;rounded=0;orthogonalLoop=1;jettySize=auto;html=1;" edge="1" parent="1" source="oZqUHAEwf5Q9D4PgmoEC-33" target="oZqUHAEwf5Q9D4PgmoEC-35">
          <mxGeometry relative="1" as="geometry" />
        </mxCell>
        <mxCell id="oZqUHAEwf5Q9D4PgmoEC-33" value="Enregistrer la commande en base de données" style="shape=rect;html=1;rounded=1;whiteSpace=wrap;align=center;" vertex="1" parent="1">
          <mxGeometry x="340" y="770" width="130" height="50" as="geometry" />
        </mxCell>
        <mxCell id="oZqUHAEwf5Q9D4PgmoEC-35" value="Afficher un message de confirmation et un récapitulatif de la commande" style="shape=rect;html=1;rounded=1;whiteSpace=wrap;align=center;" vertex="1" parent="1">
          <mxGeometry x="335" y="870" width="140" height="70" as="geometry" />
        </mxCell>
      </root>
    </mxGraphModel>
  </diagram>
</mxfile>
